%TF.GenerationSoftware,KiCad,Pcbnew,9.0.0*%
%TF.CreationDate,2025-03-27T00:22:41-04:00*%
%TF.ProjectId,orphkicad,6f727068-6b69-4636-9164-2e6b69636164,rev?*%
%TF.SameCoordinates,Original*%
%TF.FileFunction,Profile,NP*%
%FSLAX46Y46*%
G04 Gerber Fmt 4.6, Leading zero omitted, Abs format (unit mm)*
G04 Created by KiCad (PCBNEW 9.0.0) date 2025-03-27 00:22:41*
%MOMM*%
%LPD*%
G01*
G04 APERTURE LIST*
%TA.AperFunction,Profile*%
%ADD10C,0.200000*%
%TD*%
%TA.AperFunction,Profile*%
%ADD11C,0.000000*%
%TD*%
G04 APERTURE END LIST*
D10*
X70060000Y-30620000D02*
X91060000Y-30620000D01*
X91060000Y-81620000D01*
X70060000Y-81620000D01*
X70060000Y-30620000D01*
D11*
%TA.AperFunction,Profile*%
%TO.C,J1*%
G36*
X77803939Y-36156642D02*
G01*
X77883067Y-36202326D01*
X77947674Y-36266933D01*
X77993358Y-36346061D01*
X78017006Y-36434316D01*
X78017006Y-36525684D01*
X77993358Y-36613939D01*
X77947674Y-36693067D01*
X77883067Y-36757674D01*
X77803939Y-36803358D01*
X77715684Y-36827006D01*
X77624316Y-36827006D01*
X77536061Y-36803358D01*
X77456933Y-36757674D01*
X77392326Y-36693067D01*
X77346642Y-36613939D01*
X77322994Y-36525684D01*
X77322994Y-36434316D01*
X77346642Y-36346061D01*
X77392326Y-36266933D01*
X77456933Y-36202326D01*
X77536061Y-36156642D01*
X77624316Y-36132994D01*
X77715684Y-36132994D01*
X77803939Y-36156642D01*
G37*
%TD.AperFunction*%
%TA.AperFunction,Profile*%
G36*
X83583939Y-36156642D02*
G01*
X83663067Y-36202326D01*
X83727674Y-36266933D01*
X83773358Y-36346061D01*
X83797006Y-36434316D01*
X83797006Y-36525684D01*
X83773358Y-36613939D01*
X83727674Y-36693067D01*
X83663067Y-36757674D01*
X83583939Y-36803358D01*
X83495684Y-36827006D01*
X83404316Y-36827006D01*
X83316061Y-36803358D01*
X83236933Y-36757674D01*
X83172326Y-36693067D01*
X83126642Y-36613939D01*
X83102994Y-36525684D01*
X83102994Y-36434316D01*
X83126642Y-36346061D01*
X83172326Y-36266933D01*
X83236933Y-36202326D01*
X83316061Y-36156642D01*
X83404316Y-36132994D01*
X83495684Y-36132994D01*
X83583939Y-36156642D01*
G37*
%TD.AperFunction*%
%TD*%
M02*
