%TF.GenerationSoftware,KiCad,Pcbnew,9.0.0*%
%TF.CreationDate,2025-03-27T00:22:41-04:00*%
%TF.ProjectId,orphkicad,6f727068-6b69-4636-9164-2e6b69636164,rev?*%
%TF.SameCoordinates,Original*%
%TF.FileFunction,Legend,Bot*%
%TF.FilePolarity,Positive*%
%FSLAX46Y46*%
G04 Gerber Fmt 4.6, Leading zero omitted, Abs format (unit mm)*
G04 Created by KiCad (PCBNEW 9.0.0) date 2025-03-27 00:22:41*
%MOMM*%
%LPD*%
G01*
G04 APERTURE LIST*
%ADD10C,0.140000*%
%ADD11C,0.200000*%
%ADD12C,0.220000*%
%ADD13C,1.700000*%
%ADD14R,1.700000X1.700000*%
%ADD15O,1.100000X2.000000*%
%ADD16O,1.200000X1.800000*%
%ADD17C,1.600000*%
%ADD18R,1.600000X1.600000*%
G04 APERTURE END LIST*
D10*
G36*
X83847606Y-79138180D02*
G01*
X83899805Y-79134544D01*
X83944676Y-79124233D01*
X83983399Y-79107833D01*
X84018052Y-79084485D01*
X84046573Y-79055207D01*
X84069483Y-79019356D01*
X84085470Y-78979552D01*
X84095572Y-78933172D01*
X84099146Y-78878990D01*
X84099146Y-78688187D01*
X84095572Y-78634005D01*
X84085469Y-78587641D01*
X84069483Y-78547864D01*
X84046581Y-78511999D01*
X84018060Y-78482646D01*
X83983399Y-78459173D01*
X83944660Y-78442629D01*
X83899790Y-78432234D01*
X83847606Y-78428569D01*
X83804654Y-78431831D01*
X83765835Y-78441302D01*
X83730449Y-78456779D01*
X83698327Y-78478182D01*
X83669960Y-78505322D01*
X83645092Y-78538802D01*
X83625483Y-78575850D01*
X83609834Y-78618830D01*
X83598460Y-78668611D01*
X83734296Y-78668611D01*
X83744327Y-78635976D01*
X83757975Y-78609797D01*
X83775912Y-78588014D01*
X83796700Y-78572483D01*
X83820532Y-78562864D01*
X83847606Y-78559575D01*
X83882488Y-78563547D01*
X83910267Y-78574663D01*
X83932870Y-78592994D01*
X83949718Y-78618645D01*
X83959700Y-78649411D01*
X83963310Y-78688187D01*
X83963310Y-78878990D01*
X83959695Y-78917744D01*
X83949718Y-78948361D01*
X83932888Y-78973798D01*
X83910267Y-78992086D01*
X83882491Y-79003171D01*
X83847606Y-79007132D01*
X83820071Y-79003898D01*
X83795973Y-78994480D01*
X83775058Y-78979100D01*
X83757249Y-78957422D01*
X83743898Y-78931155D01*
X83734296Y-78898138D01*
X83598460Y-78898138D01*
X83610126Y-78947898D01*
X83625944Y-78990883D01*
X83645605Y-79027947D01*
X83670437Y-79061441D01*
X83698721Y-79088580D01*
X83730706Y-79109970D01*
X83765927Y-79125440D01*
X83804657Y-79134915D01*
X83847606Y-79138180D01*
G37*
G36*
X83488441Y-78435707D02*
G01*
X83357435Y-78435707D01*
X83357435Y-79131000D01*
X83488441Y-79131000D01*
X83488441Y-78435707D01*
G37*
G36*
X83430098Y-79004738D02*
G01*
X83022676Y-79004738D01*
X83022676Y-79131000D01*
X83430098Y-79131000D01*
X83430098Y-79004738D01*
G37*
G36*
X82848073Y-78859371D02*
G01*
X82569306Y-78435707D01*
X82404320Y-78435707D01*
X82831318Y-79029614D01*
X82848073Y-78859371D01*
G37*
G36*
X82926976Y-78435707D02*
G01*
X82795970Y-78435707D01*
X82795970Y-79131000D01*
X82926976Y-79131000D01*
X82926976Y-78435707D01*
G37*
G36*
X82732369Y-78779058D02*
G01*
X82619486Y-78707806D01*
X82375170Y-79131000D01*
X82530582Y-79131000D01*
X82732369Y-78779058D01*
G37*
G36*
X81131522Y-78742256D02*
G01*
X81131522Y-78878049D01*
X81135191Y-78928903D01*
X81145757Y-78974110D01*
X81162852Y-79014569D01*
X81186778Y-79051130D01*
X81216196Y-79081383D01*
X81251586Y-79105910D01*
X81290983Y-79123544D01*
X81334971Y-79134411D01*
X81384472Y-79138180D01*
X81434421Y-79134626D01*
X81478855Y-79124389D01*
X81518641Y-79107833D01*
X81554676Y-79084604D01*
X81584439Y-79056125D01*
X81608528Y-79021963D01*
X81625915Y-78983824D01*
X81636618Y-78941254D01*
X81640329Y-78893351D01*
X81640329Y-78688187D01*
X81636656Y-78637335D01*
X81626086Y-78592219D01*
X81608999Y-78551924D01*
X81585087Y-78515498D01*
X81555685Y-78485327D01*
X81520308Y-78460840D01*
X81480884Y-78443206D01*
X81436866Y-78432338D01*
X81387336Y-78428569D01*
X81346505Y-78431481D01*
X81308428Y-78440040D01*
X81272615Y-78454172D01*
X81239422Y-78473617D01*
X81210290Y-78497654D01*
X81184865Y-78526578D01*
X81164124Y-78559117D01*
X81148250Y-78595137D01*
X81137250Y-78635144D01*
X81278813Y-78635144D01*
X81288333Y-78614612D01*
X81302492Y-78597103D01*
X81320349Y-78583045D01*
X81341217Y-78572740D01*
X81363843Y-78566460D01*
X81387336Y-78564362D01*
X81420663Y-78568313D01*
X81448800Y-78579664D01*
X81472260Y-78598096D01*
X81489918Y-78623176D01*
X81500714Y-78652937D01*
X81504493Y-78688187D01*
X81504493Y-78893351D01*
X81500688Y-78924383D01*
X81489704Y-78950754D01*
X81471893Y-78972617D01*
X81447603Y-78989009D01*
X81418839Y-78998902D01*
X81384472Y-79002387D01*
X81350697Y-78998599D01*
X81322581Y-78987812D01*
X81299161Y-78969994D01*
X81281677Y-78945454D01*
X81271078Y-78915991D01*
X81267315Y-78879973D01*
X81267315Y-78868475D01*
X81372547Y-78868475D01*
X81372547Y-78742256D01*
X81131522Y-78742256D01*
G37*
G36*
X81002269Y-78435707D02*
G01*
X80842070Y-78435707D01*
X80583392Y-78968407D01*
X80594847Y-78980845D01*
X80594847Y-78435707D01*
X80469569Y-78435707D01*
X80469569Y-79130529D01*
X80630708Y-79130529D01*
X80888446Y-78605951D01*
X80876991Y-78593513D01*
X80876991Y-79130529D01*
X81002269Y-79130529D01*
X81002269Y-78435707D01*
G37*
G36*
X80250343Y-79004738D02*
G01*
X80083476Y-79004738D01*
X80041483Y-79000858D01*
X80008861Y-78990228D01*
X79983544Y-78973664D01*
X79964298Y-78950771D01*
X79952406Y-78922041D01*
X79948153Y-78885700D01*
X79948153Y-78681049D01*
X79952407Y-78644680D01*
X79964300Y-78615937D01*
X79983544Y-78593042D01*
X80008861Y-78576479D01*
X80041483Y-78565849D01*
X80083476Y-78561969D01*
X80250343Y-78561969D01*
X80250343Y-78435707D01*
X80086340Y-78435707D01*
X80028881Y-78439241D01*
X79979811Y-78449205D01*
X79937852Y-78464900D01*
X79899725Y-78487625D01*
X79868834Y-78515853D01*
X79844375Y-78550001D01*
X79827016Y-78588523D01*
X79816144Y-78633072D01*
X79812318Y-78684853D01*
X79812318Y-78881853D01*
X79815950Y-78931131D01*
X79826372Y-78974493D01*
X79843178Y-79012902D01*
X79866911Y-79047131D01*
X79897466Y-79076019D01*
X79935715Y-79099926D01*
X79977941Y-79116605D01*
X80027822Y-79127221D01*
X80086810Y-79131000D01*
X80250343Y-79131000D01*
X80250343Y-79004738D01*
G37*
G36*
X80316337Y-78435707D02*
G01*
X80185332Y-78435707D01*
X80185332Y-79131000D01*
X80316337Y-79131000D01*
X80316337Y-78435707D01*
G37*
D11*
G36*
X76294970Y-77184515D02*
G01*
X76001970Y-77184515D01*
X76001970Y-76569023D01*
X76294970Y-76569023D01*
X76294970Y-77184515D01*
G37*
G36*
X80274876Y-77764836D02*
G01*
X79958246Y-77764836D01*
X79958246Y-76569023D01*
X80274876Y-76569023D01*
X80274876Y-77764836D01*
G37*
G36*
X82209280Y-77764836D02*
G01*
X81892649Y-77764836D01*
X81892649Y-76569023D01*
X82209280Y-76569023D01*
X82209280Y-77764836D01*
G37*
G36*
X85097970Y-77764836D02*
G01*
X84769067Y-77764836D01*
X84769067Y-76569023D01*
X85097970Y-76569023D01*
X85097970Y-77764836D01*
G37*
G36*
X85504423Y-78136667D02*
G01*
X75593502Y-78136667D01*
X75593502Y-76490895D01*
X75760169Y-76490895D01*
X75760169Y-76569023D01*
X75760169Y-77184515D01*
X75760169Y-77262642D01*
X75769543Y-77318789D01*
X75795094Y-77356420D01*
X75838232Y-77380423D01*
X75906623Y-77389678D01*
X76294970Y-77389678D01*
X76294970Y-77970000D01*
X76534755Y-77970000D01*
X76534755Y-76490895D01*
X76706397Y-76490895D01*
X76706397Y-76821356D01*
X76711582Y-76870743D01*
X76728253Y-76926260D01*
X76758695Y-76989426D01*
X77199248Y-77758974D01*
X76708412Y-77758974D01*
X76708412Y-77970000D01*
X77486111Y-77970000D01*
X77486111Y-77820523D01*
X76943068Y-76865503D01*
X76943068Y-76569023D01*
X77235060Y-76569023D01*
X77235060Y-76867976D01*
X77469717Y-76867976D01*
X77469717Y-76490895D01*
X77460340Y-76434755D01*
X77434778Y-76397124D01*
X77391613Y-76373117D01*
X77323171Y-76363859D01*
X77594738Y-76363859D01*
X77902210Y-77970000D01*
X78140896Y-77970000D01*
X78595371Y-77970000D01*
X78831035Y-77970000D01*
X78831035Y-77460020D01*
X79061295Y-77460020D01*
X79550116Y-77460020D01*
X79550116Y-77243133D01*
X79061295Y-77243133D01*
X79061295Y-77460020D01*
X78831035Y-77460020D01*
X78831035Y-76832805D01*
X78923267Y-76832805D01*
X78923267Y-76800565D01*
X78835393Y-76490895D01*
X79723590Y-76490895D01*
X79723590Y-76569023D01*
X79723590Y-77764836D01*
X79723590Y-77842963D01*
X79732898Y-77899260D01*
X79758209Y-77936881D01*
X79800792Y-77960798D01*
X79868120Y-77970000D01*
X80368116Y-77970000D01*
X80434282Y-77960857D01*
X80476258Y-77937037D01*
X80501304Y-77899426D01*
X80510540Y-77842963D01*
X80510540Y-77460020D01*
X80649392Y-77460020D01*
X80649392Y-77665184D01*
X80771300Y-77665184D01*
X80771300Y-77970000D01*
X80999820Y-77970000D01*
X80999820Y-77665184D01*
X81526468Y-77665184D01*
X81526468Y-77522760D01*
X81171558Y-76490895D01*
X81657993Y-76490895D01*
X81657993Y-76569023D01*
X81657993Y-77764836D01*
X81657993Y-77842963D01*
X81667301Y-77899260D01*
X81692612Y-77936881D01*
X81735196Y-77960798D01*
X81802524Y-77970000D01*
X82302519Y-77970000D01*
X82368685Y-77960857D01*
X82410661Y-77937037D01*
X82435707Y-77899426D01*
X82444943Y-77842963D01*
X82444943Y-76490895D01*
X82616585Y-76490895D01*
X82616585Y-76821356D01*
X82621771Y-76870743D01*
X82638442Y-76926260D01*
X82668884Y-76989426D01*
X83109437Y-77758974D01*
X82618600Y-77758974D01*
X82618600Y-77970000D01*
X83396300Y-77970000D01*
X83516101Y-77970000D01*
X83766145Y-77970000D01*
X84030476Y-77223715D01*
X84030476Y-77079002D01*
X83794813Y-77079002D01*
X83794813Y-76569023D01*
X84097063Y-76569023D01*
X84097063Y-77970000D01*
X84336849Y-77970000D01*
X84336849Y-76490895D01*
X84529281Y-76490895D01*
X84529281Y-76569023D01*
X84529281Y-77764836D01*
X84529281Y-77842963D01*
X84538624Y-77899181D01*
X84564061Y-77936808D01*
X84606935Y-77960769D01*
X84674820Y-77970000D01*
X85195332Y-77970000D01*
X85261497Y-77960857D01*
X85303473Y-77937037D01*
X85328519Y-77899426D01*
X85337756Y-77842963D01*
X85337756Y-76490895D01*
X85328519Y-76434432D01*
X85303473Y-76396821D01*
X85261497Y-76373001D01*
X85195332Y-76363859D01*
X84674820Y-76363859D01*
X84606935Y-76373089D01*
X84564061Y-76397051D01*
X84538624Y-76434677D01*
X84529281Y-76490895D01*
X84336849Y-76490895D01*
X84336849Y-76363859D01*
X83700565Y-76363859D01*
X83633237Y-76373060D01*
X83590654Y-76396977D01*
X83565343Y-76434598D01*
X83556035Y-76490895D01*
X83556035Y-77110234D01*
X83564440Y-77164151D01*
X83587171Y-77200481D01*
X83624728Y-77223990D01*
X83671765Y-77232970D01*
X83780524Y-77237271D01*
X83516101Y-77970000D01*
X83396300Y-77970000D01*
X83396300Y-77820523D01*
X82853256Y-76865503D01*
X82853256Y-76569023D01*
X83145249Y-76569023D01*
X83145249Y-76867976D01*
X83379905Y-76867976D01*
X83379905Y-76490895D01*
X83370528Y-76434755D01*
X83344966Y-76397124D01*
X83301802Y-76373117D01*
X83233359Y-76363859D01*
X82763039Y-76363859D01*
X82694648Y-76373114D01*
X82651510Y-76397117D01*
X82625959Y-76434748D01*
X82616585Y-76490895D01*
X82444943Y-76490895D01*
X82435604Y-76434670D01*
X82410179Y-76397044D01*
X82367331Y-76373086D01*
X82299497Y-76363859D01*
X81802524Y-76363859D01*
X81735196Y-76373060D01*
X81692612Y-76396977D01*
X81667301Y-76434598D01*
X81657993Y-76490895D01*
X81171558Y-76490895D01*
X81127864Y-76363859D01*
X80884048Y-76363859D01*
X80884048Y-76373109D01*
X81258015Y-77460020D01*
X80999820Y-77460020D01*
X80999820Y-76979351D01*
X80771300Y-76979351D01*
X80771300Y-77460020D01*
X80649392Y-77460020D01*
X80510540Y-77460020D01*
X80510540Y-76490895D01*
X80501200Y-76434670D01*
X80475775Y-76397044D01*
X80432928Y-76373086D01*
X80365093Y-76363859D01*
X79868120Y-76363859D01*
X79800792Y-76373060D01*
X79758209Y-76396977D01*
X79732898Y-76434598D01*
X79723590Y-76490895D01*
X78835393Y-76490895D01*
X78799344Y-76363859D01*
X78595371Y-76363859D01*
X78595371Y-77970000D01*
X78140896Y-77970000D01*
X78447268Y-76363859D01*
X78206475Y-76363859D01*
X78027140Y-77463592D01*
X78021003Y-77600979D01*
X78014867Y-77463592D01*
X77834524Y-76363859D01*
X77594738Y-76363859D01*
X77323171Y-76363859D01*
X76852851Y-76363859D01*
X76784459Y-76373114D01*
X76741321Y-76397117D01*
X76715770Y-76434748D01*
X76706397Y-76490895D01*
X76534755Y-76490895D01*
X76534755Y-76363859D01*
X75906623Y-76363859D01*
X75838232Y-76373114D01*
X75795094Y-76397117D01*
X75769543Y-76434748D01*
X75760169Y-76490895D01*
X75593502Y-76490895D01*
X75593502Y-76197192D01*
X85504423Y-76197192D01*
X85504423Y-78136667D01*
G37*
D10*
G36*
X78785310Y-79138180D02*
G01*
X78834651Y-79135655D01*
X78882635Y-79128136D01*
X78929062Y-79115667D01*
X78972052Y-79098729D01*
X79012023Y-79077179D01*
X79046894Y-79052097D01*
X78986157Y-78944044D01*
X78943254Y-78973074D01*
X78893406Y-78994993D01*
X78840062Y-79008427D01*
X78785310Y-79012902D01*
X78742927Y-79010087D01*
X78710457Y-79002514D01*
X78685848Y-78991146D01*
X78665901Y-78974309D01*
X78654405Y-78954202D01*
X78650457Y-78929682D01*
X78650457Y-78929212D01*
X78654621Y-78903771D01*
X78666272Y-78885230D01*
X78684040Y-78871337D01*
X78707390Y-78861294D01*
X78772402Y-78847446D01*
X78775052Y-78846976D01*
X78777659Y-78846463D01*
X78788174Y-78845052D01*
X78854833Y-78832017D01*
X78903920Y-78817569D01*
X78932745Y-78803950D01*
X78958616Y-78784835D01*
X78981883Y-78759695D01*
X78998787Y-78730400D01*
X79009828Y-78692094D01*
X79013897Y-78642282D01*
X79013897Y-78641812D01*
X79010328Y-78597735D01*
X79000146Y-78559678D01*
X78983763Y-78526578D01*
X78961008Y-78497588D01*
X78932136Y-78473355D01*
X78896270Y-78453659D01*
X78857210Y-78440204D01*
X78811368Y-78431621D01*
X78757570Y-78428569D01*
X78720189Y-78430681D01*
X78681318Y-78437161D01*
X78642849Y-78447647D01*
X78605065Y-78462037D01*
X78568701Y-78479963D01*
X78534283Y-78501232D01*
X78589763Y-78612191D01*
X78631064Y-78587429D01*
X78673667Y-78569149D01*
X78717280Y-78557537D01*
X78757570Y-78553848D01*
X78797489Y-78556426D01*
X78827918Y-78563344D01*
X78850834Y-78573680D01*
X78869504Y-78589073D01*
X78880184Y-78607300D01*
X78883831Y-78629374D01*
X78883831Y-78629844D01*
X78879292Y-78657448D01*
X78866606Y-78677459D01*
X78847573Y-78692441D01*
X78824077Y-78703019D01*
X78752826Y-78720244D01*
X78748979Y-78720971D01*
X78745175Y-78721655D01*
X78739661Y-78722894D01*
X78734147Y-78724048D01*
X78671143Y-78739040D01*
X78623957Y-78755378D01*
X78596242Y-78770054D01*
X78571714Y-78789678D01*
X78550055Y-78814705D01*
X78534307Y-78843427D01*
X78524112Y-78879969D01*
X78520392Y-78926348D01*
X78520392Y-78927289D01*
X78524059Y-78970670D01*
X78534550Y-79008260D01*
X78551509Y-79041112D01*
X78574885Y-79069667D01*
X78604755Y-79093683D01*
X78642123Y-79113304D01*
X78682541Y-79126643D01*
X78729882Y-79135155D01*
X78785310Y-79138180D01*
G37*
G36*
X78115193Y-78435707D02*
G01*
X78010004Y-78435707D01*
X77877075Y-78899549D01*
X77787657Y-78435707D01*
X77652805Y-78435707D01*
X77813004Y-79131000D01*
X77936359Y-79131000D01*
X78059713Y-78645146D01*
X78188838Y-79131000D01*
X78312193Y-79131000D01*
X78472392Y-78435707D01*
X78337540Y-78435707D01*
X78248122Y-78899549D01*
X78115193Y-78435707D01*
G37*
G36*
X77500342Y-79004738D02*
G01*
X77333476Y-79004738D01*
X77291482Y-79000858D01*
X77258861Y-78990228D01*
X77233544Y-78973664D01*
X77214297Y-78950771D01*
X77202406Y-78922041D01*
X77198153Y-78885700D01*
X77198153Y-78681049D01*
X77202407Y-78644680D01*
X77214299Y-78615937D01*
X77233544Y-78593042D01*
X77258861Y-78576479D01*
X77291482Y-78565849D01*
X77333476Y-78561969D01*
X77500342Y-78561969D01*
X77500342Y-78435707D01*
X77336339Y-78435707D01*
X77278880Y-78439241D01*
X77229811Y-78449205D01*
X77187852Y-78464900D01*
X77149725Y-78487625D01*
X77118834Y-78515853D01*
X77094374Y-78550001D01*
X77077015Y-78588523D01*
X77066144Y-78633072D01*
X77062317Y-78684853D01*
X77062317Y-78881853D01*
X77065950Y-78931131D01*
X77076371Y-78974493D01*
X77093177Y-79012902D01*
X77116911Y-79047131D01*
X77147466Y-79076019D01*
X77185715Y-79099926D01*
X77227941Y-79116605D01*
X77277822Y-79127221D01*
X77336810Y-79131000D01*
X77500342Y-79131000D01*
X77500342Y-79004738D01*
G37*
G36*
X77566337Y-78435707D02*
G01*
X77435331Y-78435707D01*
X77435331Y-79131000D01*
X77566337Y-79131000D01*
X77566337Y-78435707D01*
G37*
%LPC*%
D12*
G36*
X82959000Y-33191427D02*
G01*
X82959000Y-33195000D01*
X82753884Y-33195000D01*
X82712131Y-32930826D01*
X82451927Y-32930826D01*
X82410174Y-33195000D01*
X82204185Y-33195000D01*
X82289048Y-32753018D01*
X82481218Y-32753018D01*
X82684587Y-32753018D01*
X82582505Y-32125607D01*
X82481218Y-32753018D01*
X82289048Y-32753018D01*
X82471454Y-31803011D01*
X82689905Y-31803011D01*
X82959000Y-33191427D01*
G37*
G36*
X81706083Y-32295795D02*
G01*
X81775380Y-32293255D01*
X81849917Y-32290715D01*
X81958012Y-32296351D01*
X82022249Y-32309845D01*
X82067707Y-32332892D01*
X82092162Y-32362620D01*
X82100358Y-32400813D01*
X82100358Y-33032431D01*
X82095105Y-33082410D01*
X82080414Y-33122570D01*
X82056858Y-33155072D01*
X82025188Y-33179506D01*
X81985942Y-33194666D01*
X81936917Y-33200080D01*
X81706083Y-33160708D01*
X81706083Y-33195000D01*
X81503587Y-33195000D01*
X81503587Y-33018461D01*
X81706083Y-33018461D01*
X81834835Y-33027351D01*
X81870926Y-33019721D01*
X81891143Y-32999059D01*
X81898735Y-32961467D01*
X81898735Y-32531154D01*
X81890809Y-32492692D01*
X81869544Y-32471375D01*
X81831263Y-32463443D01*
X81706083Y-32463443D01*
X81706083Y-33018461D01*
X81503587Y-33018461D01*
X81503587Y-31803011D01*
X81706083Y-31803011D01*
X81706083Y-32295795D01*
G37*
G36*
X81287674Y-32303459D02*
G01*
X81321486Y-32323678D01*
X81342060Y-32356229D01*
X81349751Y-32405894D01*
X81349751Y-32570129D01*
X81165909Y-32570129D01*
X81165909Y-32448203D01*
X80971431Y-32448203D01*
X80971431Y-32651413D01*
X81245844Y-32651413D01*
X81298311Y-32659076D01*
X81332122Y-32679296D01*
X81352697Y-32711846D01*
X81360387Y-32761511D01*
X81360387Y-33089981D01*
X81352828Y-33139953D01*
X81332716Y-33172484D01*
X81299938Y-33192525D01*
X81249416Y-33200080D01*
X81111773Y-33186427D01*
X80973256Y-33164518D01*
X80973256Y-33195000D01*
X80778778Y-33195000D01*
X80778778Y-33034972D01*
X80971431Y-33034972D01*
X81165909Y-33042592D01*
X81165909Y-32788579D01*
X80971431Y-32788579D01*
X80971431Y-33034972D01*
X80778778Y-33034972D01*
X80778778Y-32405894D01*
X80786402Y-32356073D01*
X80806740Y-32323533D01*
X80840024Y-32303403D01*
X80891496Y-32295795D01*
X81235207Y-32295795D01*
X81287674Y-32303459D01*
G37*
G36*
X79643659Y-33195000D02*
G01*
X79845203Y-33195000D01*
X79845203Y-32463443D01*
X80036188Y-32469159D01*
X80036188Y-33195000D01*
X80238604Y-33195000D01*
X80238604Y-32463443D01*
X80429590Y-32469159D01*
X80429590Y-33195000D01*
X80632959Y-33195000D01*
X80632959Y-32295795D01*
X80429590Y-32295795D01*
X80429590Y-32330087D01*
X80288375Y-32305082D01*
X80205649Y-32293921D01*
X80145414Y-32290715D01*
X80101123Y-32296335D01*
X80072491Y-32310943D01*
X80054842Y-32333579D01*
X79905610Y-32307861D01*
X79812558Y-32294338D01*
X79754631Y-32290715D01*
X79704108Y-32298269D01*
X79671330Y-32318311D01*
X79651219Y-32350841D01*
X79643659Y-32400813D01*
X79643659Y-33195000D01*
G37*
G36*
X78424796Y-33084901D02*
G01*
X78432923Y-33133556D01*
X78455077Y-33166169D01*
X78492486Y-33186976D01*
X78551802Y-33195000D01*
X78988704Y-33195000D01*
X79046047Y-33187076D01*
X79082427Y-33166432D01*
X79104133Y-33133836D01*
X79112138Y-33084901D01*
X79112138Y-31913109D01*
X79104044Y-31864380D01*
X79082009Y-31831771D01*
X79044874Y-31811008D01*
X78986084Y-31803011D01*
X78551802Y-31803011D01*
X78492486Y-31811034D01*
X78455077Y-31831841D01*
X78432923Y-31864454D01*
X78424796Y-31913109D01*
X78424796Y-32229752D01*
X78633483Y-32229752D01*
X78633483Y-31980819D01*
X78904324Y-31980819D01*
X78904324Y-33017191D01*
X78633483Y-33017191D01*
X78633483Y-32626011D01*
X78788034Y-32626011D01*
X78788034Y-32448203D01*
X78424796Y-32448203D01*
X78424796Y-33084901D01*
G37*
G36*
X78074894Y-33195000D02*
G01*
X78274690Y-33195000D01*
X78274690Y-32976549D01*
X78074894Y-32976549D01*
X78074894Y-33195000D01*
G37*
G36*
X83256906Y-34487459D02*
G01*
X83290718Y-34507678D01*
X83311292Y-34540229D01*
X83318983Y-34589894D01*
X83318983Y-34754129D01*
X83135141Y-34754129D01*
X83135141Y-34632203D01*
X82940663Y-34632203D01*
X82940663Y-34835413D01*
X83215076Y-34835413D01*
X83267543Y-34843076D01*
X83301355Y-34863296D01*
X83321929Y-34895846D01*
X83329620Y-34945511D01*
X83329620Y-35273981D01*
X83322060Y-35323953D01*
X83301949Y-35356484D01*
X83269171Y-35376525D01*
X83218648Y-35384080D01*
X83081005Y-35370427D01*
X82942489Y-35348518D01*
X82942489Y-35379000D01*
X82748010Y-35379000D01*
X82748010Y-35218972D01*
X82940663Y-35218972D01*
X83135141Y-35226592D01*
X83135141Y-34972579D01*
X82940663Y-34972579D01*
X82940663Y-35218972D01*
X82748010Y-35218972D01*
X82748010Y-34589894D01*
X82755634Y-34540073D01*
X82775973Y-34507533D01*
X82809256Y-34487403D01*
X82860728Y-34479795D01*
X83204439Y-34479795D01*
X83256906Y-34487459D01*
G37*
G36*
X82209662Y-34479795D02*
G01*
X82278960Y-34477255D01*
X82353497Y-34474715D01*
X82461592Y-34480351D01*
X82525829Y-34493845D01*
X82571287Y-34516892D01*
X82595742Y-34546620D01*
X82603938Y-34584813D01*
X82603938Y-35216431D01*
X82598685Y-35266410D01*
X82583994Y-35306570D01*
X82560438Y-35339072D01*
X82528768Y-35363506D01*
X82489522Y-35378666D01*
X82440496Y-35384080D01*
X82209662Y-35344708D01*
X82209662Y-35379000D01*
X82007167Y-35379000D01*
X82007167Y-35202461D01*
X82209662Y-35202461D01*
X82338415Y-35211351D01*
X82374506Y-35203721D01*
X82394723Y-35183059D01*
X82402315Y-35145467D01*
X82402315Y-34715154D01*
X82394388Y-34676692D01*
X82373124Y-34655375D01*
X82334843Y-34647443D01*
X82209662Y-34647443D01*
X82209662Y-35202461D01*
X82007167Y-35202461D01*
X82007167Y-33987011D01*
X82209662Y-33987011D01*
X82209662Y-34479795D01*
G37*
G36*
X80871175Y-35379000D02*
G01*
X81072718Y-35379000D01*
X81072718Y-34647443D01*
X81263704Y-34653159D01*
X81263704Y-35379000D01*
X81466120Y-35379000D01*
X81466120Y-34647443D01*
X81657106Y-34653159D01*
X81657106Y-35379000D01*
X81860475Y-35379000D01*
X81860475Y-34479795D01*
X81657106Y-34479795D01*
X81657106Y-34514087D01*
X81515891Y-34489082D01*
X81433165Y-34477921D01*
X81372929Y-34474715D01*
X81328638Y-34480335D01*
X81300007Y-34494943D01*
X81282358Y-34517579D01*
X81133125Y-34491861D01*
X81040073Y-34478338D01*
X80982147Y-34474715D01*
X80931624Y-34482269D01*
X80898846Y-34502311D01*
X80878735Y-34534841D01*
X80871175Y-34584813D01*
X80871175Y-35379000D01*
G37*
G36*
X80126442Y-35379000D02*
G01*
X80343146Y-35379000D01*
X80521670Y-34968452D01*
X80521670Y-35379000D01*
X80725038Y-35379000D01*
X80725038Y-33987011D01*
X80521670Y-33987011D01*
X80521670Y-34824617D01*
X80360927Y-34479795D01*
X80148668Y-34479795D01*
X80148668Y-34483367D01*
X80355609Y-34893836D01*
X80126442Y-35379000D01*
G37*
G36*
X79844726Y-35379000D02*
G01*
X80044523Y-35379000D01*
X80044523Y-35160549D01*
X79844726Y-35160549D01*
X79844726Y-35379000D01*
G37*
G36*
X79312649Y-34479795D02*
G01*
X79381947Y-34477255D01*
X79456484Y-34474715D01*
X79564579Y-34480351D01*
X79628815Y-34493845D01*
X79674274Y-34516892D01*
X79698729Y-34546620D01*
X79706924Y-34584813D01*
X79706924Y-35216431D01*
X79701672Y-35266410D01*
X79686981Y-35306570D01*
X79663425Y-35339072D01*
X79631754Y-35363506D01*
X79592509Y-35378666D01*
X79543483Y-35384080D01*
X79312649Y-35344708D01*
X79312649Y-35379000D01*
X79110154Y-35379000D01*
X79110154Y-35202461D01*
X79312649Y-35202461D01*
X79441402Y-35211351D01*
X79477493Y-35203721D01*
X79497709Y-35183059D01*
X79505302Y-35145467D01*
X79505302Y-34715154D01*
X79497375Y-34676692D01*
X79476111Y-34655375D01*
X79437830Y-34647443D01*
X79312649Y-34647443D01*
X79312649Y-35202461D01*
X79110154Y-35202461D01*
X79110154Y-33987011D01*
X79312649Y-33987011D01*
X79312649Y-34479795D01*
G37*
G36*
X78901349Y-34487461D02*
G01*
X78935183Y-34507685D01*
X78955768Y-34540236D01*
X78963461Y-34589894D01*
X78963461Y-35268901D01*
X78955768Y-35318559D01*
X78935183Y-35351110D01*
X78901349Y-35371334D01*
X78848838Y-35379000D01*
X78498063Y-35379000D01*
X78445595Y-35371336D01*
X78411784Y-35351116D01*
X78391210Y-35318566D01*
X78383519Y-35268901D01*
X78383519Y-35079265D01*
X78577997Y-35079265D01*
X78577997Y-35231672D01*
X78768983Y-35231672D01*
X78768983Y-34977660D01*
X78439481Y-34977660D01*
X78383519Y-34921777D01*
X78383519Y-34844065D01*
X78577997Y-34844065D01*
X78768983Y-34844065D01*
X78768983Y-34627122D01*
X78577997Y-34627122D01*
X78577997Y-34844065D01*
X78383519Y-34844065D01*
X78383519Y-34589894D01*
X78391210Y-34540229D01*
X78411784Y-34507678D01*
X78445595Y-34487459D01*
X78498063Y-34479795D01*
X78848838Y-34479795D01*
X78901349Y-34487461D01*
G37*
G36*
X77628228Y-34479795D02*
G01*
X77857395Y-35379000D01*
X78051874Y-35379000D01*
X78280961Y-34479795D01*
X78072274Y-34479795D01*
X77954158Y-35074184D01*
X77836042Y-34479795D01*
X77628228Y-34479795D01*
G37*
D13*
%TO.C,REF\u002A\u002A*%
X78060000Y-80250000D03*
D14*
X80600000Y-80250000D03*
D13*
X83140000Y-80250000D03*
%TD*%
D15*
%TO.C,J1*%
X84885000Y-37000000D03*
D16*
X84885000Y-32800000D03*
D15*
X76235000Y-37000000D03*
D16*
X76235000Y-32800000D03*
%TD*%
D17*
%TO.C,H2*%
X89450000Y-31990000D03*
X89450000Y-34530000D03*
D18*
X89450000Y-37070000D03*
D17*
X89450000Y-39610000D03*
X89450000Y-42150000D03*
X89450000Y-44690000D03*
X89450000Y-47230000D03*
D18*
X89450000Y-49770000D03*
D17*
X89450000Y-52310000D03*
X89450000Y-54850000D03*
X89450000Y-57390000D03*
X89450000Y-59930000D03*
D18*
X89450000Y-62470000D03*
D17*
X89450000Y-65010000D03*
X89450000Y-67550000D03*
X89450000Y-70090000D03*
X89450000Y-72630000D03*
D18*
X89450000Y-75170000D03*
D17*
X89450000Y-77710000D03*
X89450000Y-80250000D03*
%TD*%
%TO.C,H1*%
X71670000Y-31990000D03*
X71670000Y-34530000D03*
D18*
X71670000Y-37070000D03*
D17*
X71670000Y-39610000D03*
X71670000Y-42150000D03*
X71670000Y-44690000D03*
X71670000Y-47230000D03*
D18*
X71670000Y-49770000D03*
D17*
X71670000Y-52310000D03*
X71670000Y-54850000D03*
X71670000Y-57390000D03*
X71670000Y-59930000D03*
D18*
X71670000Y-62470000D03*
D17*
X71670000Y-65010000D03*
X71670000Y-67550000D03*
X71670000Y-70090000D03*
X71670000Y-72630000D03*
D18*
X71670000Y-75170000D03*
D17*
X71670000Y-77710000D03*
X71670000Y-80250000D03*
%TD*%
%LPD*%
M02*
