M48
; DRILL file {KiCad 9.0.0} date 2025-03-27T00:22:41-0400
; FORMAT={-:-/ absolute / inch / decimal}
; #@! TF.CreationDate,2025-03-27T00:22:41-04:00
; #@! TF.GenerationSoftware,Kicad,Pcbnew,9.0.0
; #@! TF.FileFunction,Plated,1,2,PTH
FMAT,2
INCH
; #@! TA.AperFunction,Plated,PTH,ViaDrill
T1C0.0118
; #@! TA.AperFunction,Plated,PTH,ComponentDrill
T2C0.0236
; #@! TA.AperFunction,Plated,PTH,ComponentDrill
T3C0.0394
; #@! TA.AperFunction,Plated,PTH,ComponentDrill
T4C0.0413
%
G90
G05
T1
X2.9518Y-2.3839
X3.003Y-2.1545
X3.0453Y-2.7093
X3.0453Y-2.8813
X3.0482Y-1.8829
X3.0551Y-2.0138
X3.1024Y-2.187
X3.1388Y-2.2618
X3.1786Y-2.1845
X3.1801Y-1.563
X3.187Y-2.3671
X3.187Y-2.5335
X3.2067Y-2.8199
X3.2121Y-2.3671
X3.2283Y-2.1998
X3.2313Y-2.8996
X3.2444Y-2.2832
X3.2461Y-2.0299
X3.2598Y-2.2057
X3.2854Y-1.9035
X3.3022Y-1.5404
X3.3278Y-2.5463
X3.3533Y-3.0984
X3.3947Y-2.374
X3.4419Y-2.1909
X3.4488Y-2.2254
T3
X3.0732Y-3.1594
X3.1732Y-3.1594
X3.2732Y-3.1594
T4
X2.8217Y-1.2594
X2.8217Y-1.3594
X2.8217Y-1.4594
X2.8217Y-1.5594
X2.8217Y-1.6594
X2.8217Y-1.7594
X2.8217Y-1.8594
X2.8217Y-1.9594
X2.8217Y-2.0594
X2.8217Y-2.1594
X2.8217Y-2.2594
X2.8217Y-2.3594
X2.8217Y-2.4594
X2.8217Y-2.5594
X2.8217Y-2.6594
X2.8217Y-2.7594
X2.8217Y-2.8594
X2.8217Y-2.9594
X2.8217Y-3.0594
X2.8217Y-3.1594
X3.5217Y-1.2594
X3.5217Y-1.3594
X3.5217Y-1.4594
X3.5217Y-1.5594
X3.5217Y-1.6594
X3.5217Y-1.7594
X3.5217Y-1.8594
X3.5217Y-1.9594
X3.5217Y-2.0594
X3.5217Y-2.1594
X3.5217Y-2.2594
X3.5217Y-2.3594
X3.5217Y-2.4594
X3.5217Y-2.5594
X3.5217Y-2.6594
X3.5217Y-2.7594
X3.5217Y-2.8594
X3.5217Y-2.9594
X3.5217Y-3.0594
X3.5217Y-3.1594
T2
G00X3.0014Y-1.3031
M15
G01X3.0014Y-1.2795
M16
G05
G00X3.0014Y-1.4744
M15
G01X3.0014Y-1.439
M16
G05
G00X3.3419Y-1.3031
M15
G01X3.3419Y-1.2795
M16
G05
G00X3.3419Y-1.4744
M15
G01X3.3419Y-1.439
M16
G05
M30
