%TF.GenerationSoftware,KiCad,Pcbnew,9.0.0*%
%TF.CreationDate,2025-03-27T00:22:41-04:00*%
%TF.ProjectId,orphkicad,6f727068-6b69-4636-9164-2e6b69636164,rev?*%
%TF.SameCoordinates,Original*%
%TF.FileFunction,Soldermask,Bot*%
%TF.FilePolarity,Negative*%
%FSLAX46Y46*%
G04 Gerber Fmt 4.6, Leading zero omitted, Abs format (unit mm)*
G04 Created by KiCad (PCBNEW 9.0.0) date 2025-03-27 00:22:41*
%MOMM*%
%LPD*%
G01*
G04 APERTURE LIST*
%ADD10C,0.220000*%
%ADD11C,1.700000*%
%ADD12R,1.700000X1.700000*%
%ADD13O,1.100000X2.000000*%
%ADD14O,1.200000X1.800000*%
%ADD15C,1.600000*%
%ADD16R,1.600000X1.600000*%
G04 APERTURE END LIST*
D10*
G36*
X82959000Y-33191427D02*
G01*
X82959000Y-33195000D01*
X82753884Y-33195000D01*
X82712131Y-32930826D01*
X82451927Y-32930826D01*
X82410174Y-33195000D01*
X82204185Y-33195000D01*
X82289048Y-32753018D01*
X82481218Y-32753018D01*
X82684587Y-32753018D01*
X82582505Y-32125607D01*
X82481218Y-32753018D01*
X82289048Y-32753018D01*
X82471454Y-31803011D01*
X82689905Y-31803011D01*
X82959000Y-33191427D01*
G37*
G36*
X81706083Y-32295795D02*
G01*
X81775380Y-32293255D01*
X81849917Y-32290715D01*
X81958012Y-32296351D01*
X82022249Y-32309845D01*
X82067707Y-32332892D01*
X82092162Y-32362620D01*
X82100358Y-32400813D01*
X82100358Y-33032431D01*
X82095105Y-33082410D01*
X82080414Y-33122570D01*
X82056858Y-33155072D01*
X82025188Y-33179506D01*
X81985942Y-33194666D01*
X81936917Y-33200080D01*
X81706083Y-33160708D01*
X81706083Y-33195000D01*
X81503587Y-33195000D01*
X81503587Y-33018461D01*
X81706083Y-33018461D01*
X81834835Y-33027351D01*
X81870926Y-33019721D01*
X81891143Y-32999059D01*
X81898735Y-32961467D01*
X81898735Y-32531154D01*
X81890809Y-32492692D01*
X81869544Y-32471375D01*
X81831263Y-32463443D01*
X81706083Y-32463443D01*
X81706083Y-33018461D01*
X81503587Y-33018461D01*
X81503587Y-31803011D01*
X81706083Y-31803011D01*
X81706083Y-32295795D01*
G37*
G36*
X81287674Y-32303459D02*
G01*
X81321486Y-32323678D01*
X81342060Y-32356229D01*
X81349751Y-32405894D01*
X81349751Y-32570129D01*
X81165909Y-32570129D01*
X81165909Y-32448203D01*
X80971431Y-32448203D01*
X80971431Y-32651413D01*
X81245844Y-32651413D01*
X81298311Y-32659076D01*
X81332122Y-32679296D01*
X81352697Y-32711846D01*
X81360387Y-32761511D01*
X81360387Y-33089981D01*
X81352828Y-33139953D01*
X81332716Y-33172484D01*
X81299938Y-33192525D01*
X81249416Y-33200080D01*
X81111773Y-33186427D01*
X80973256Y-33164518D01*
X80973256Y-33195000D01*
X80778778Y-33195000D01*
X80778778Y-33034972D01*
X80971431Y-33034972D01*
X81165909Y-33042592D01*
X81165909Y-32788579D01*
X80971431Y-32788579D01*
X80971431Y-33034972D01*
X80778778Y-33034972D01*
X80778778Y-32405894D01*
X80786402Y-32356073D01*
X80806740Y-32323533D01*
X80840024Y-32303403D01*
X80891496Y-32295795D01*
X81235207Y-32295795D01*
X81287674Y-32303459D01*
G37*
G36*
X79643659Y-33195000D02*
G01*
X79845203Y-33195000D01*
X79845203Y-32463443D01*
X80036188Y-32469159D01*
X80036188Y-33195000D01*
X80238604Y-33195000D01*
X80238604Y-32463443D01*
X80429590Y-32469159D01*
X80429590Y-33195000D01*
X80632959Y-33195000D01*
X80632959Y-32295795D01*
X80429590Y-32295795D01*
X80429590Y-32330087D01*
X80288375Y-32305082D01*
X80205649Y-32293921D01*
X80145414Y-32290715D01*
X80101123Y-32296335D01*
X80072491Y-32310943D01*
X80054842Y-32333579D01*
X79905610Y-32307861D01*
X79812558Y-32294338D01*
X79754631Y-32290715D01*
X79704108Y-32298269D01*
X79671330Y-32318311D01*
X79651219Y-32350841D01*
X79643659Y-32400813D01*
X79643659Y-33195000D01*
G37*
G36*
X78424796Y-33084901D02*
G01*
X78432923Y-33133556D01*
X78455077Y-33166169D01*
X78492486Y-33186976D01*
X78551802Y-33195000D01*
X78988704Y-33195000D01*
X79046047Y-33187076D01*
X79082427Y-33166432D01*
X79104133Y-33133836D01*
X79112138Y-33084901D01*
X79112138Y-31913109D01*
X79104044Y-31864380D01*
X79082009Y-31831771D01*
X79044874Y-31811008D01*
X78986084Y-31803011D01*
X78551802Y-31803011D01*
X78492486Y-31811034D01*
X78455077Y-31831841D01*
X78432923Y-31864454D01*
X78424796Y-31913109D01*
X78424796Y-32229752D01*
X78633483Y-32229752D01*
X78633483Y-31980819D01*
X78904324Y-31980819D01*
X78904324Y-33017191D01*
X78633483Y-33017191D01*
X78633483Y-32626011D01*
X78788034Y-32626011D01*
X78788034Y-32448203D01*
X78424796Y-32448203D01*
X78424796Y-33084901D01*
G37*
G36*
X78074894Y-33195000D02*
G01*
X78274690Y-33195000D01*
X78274690Y-32976549D01*
X78074894Y-32976549D01*
X78074894Y-33195000D01*
G37*
G36*
X83256906Y-34487459D02*
G01*
X83290718Y-34507678D01*
X83311292Y-34540229D01*
X83318983Y-34589894D01*
X83318983Y-34754129D01*
X83135141Y-34754129D01*
X83135141Y-34632203D01*
X82940663Y-34632203D01*
X82940663Y-34835413D01*
X83215076Y-34835413D01*
X83267543Y-34843076D01*
X83301355Y-34863296D01*
X83321929Y-34895846D01*
X83329620Y-34945511D01*
X83329620Y-35273981D01*
X83322060Y-35323953D01*
X83301949Y-35356484D01*
X83269171Y-35376525D01*
X83218648Y-35384080D01*
X83081005Y-35370427D01*
X82942489Y-35348518D01*
X82942489Y-35379000D01*
X82748010Y-35379000D01*
X82748010Y-35218972D01*
X82940663Y-35218972D01*
X83135141Y-35226592D01*
X83135141Y-34972579D01*
X82940663Y-34972579D01*
X82940663Y-35218972D01*
X82748010Y-35218972D01*
X82748010Y-34589894D01*
X82755634Y-34540073D01*
X82775973Y-34507533D01*
X82809256Y-34487403D01*
X82860728Y-34479795D01*
X83204439Y-34479795D01*
X83256906Y-34487459D01*
G37*
G36*
X82209662Y-34479795D02*
G01*
X82278960Y-34477255D01*
X82353497Y-34474715D01*
X82461592Y-34480351D01*
X82525829Y-34493845D01*
X82571287Y-34516892D01*
X82595742Y-34546620D01*
X82603938Y-34584813D01*
X82603938Y-35216431D01*
X82598685Y-35266410D01*
X82583994Y-35306570D01*
X82560438Y-35339072D01*
X82528768Y-35363506D01*
X82489522Y-35378666D01*
X82440496Y-35384080D01*
X82209662Y-35344708D01*
X82209662Y-35379000D01*
X82007167Y-35379000D01*
X82007167Y-35202461D01*
X82209662Y-35202461D01*
X82338415Y-35211351D01*
X82374506Y-35203721D01*
X82394723Y-35183059D01*
X82402315Y-35145467D01*
X82402315Y-34715154D01*
X82394388Y-34676692D01*
X82373124Y-34655375D01*
X82334843Y-34647443D01*
X82209662Y-34647443D01*
X82209662Y-35202461D01*
X82007167Y-35202461D01*
X82007167Y-33987011D01*
X82209662Y-33987011D01*
X82209662Y-34479795D01*
G37*
G36*
X80871175Y-35379000D02*
G01*
X81072718Y-35379000D01*
X81072718Y-34647443D01*
X81263704Y-34653159D01*
X81263704Y-35379000D01*
X81466120Y-35379000D01*
X81466120Y-34647443D01*
X81657106Y-34653159D01*
X81657106Y-35379000D01*
X81860475Y-35379000D01*
X81860475Y-34479795D01*
X81657106Y-34479795D01*
X81657106Y-34514087D01*
X81515891Y-34489082D01*
X81433165Y-34477921D01*
X81372929Y-34474715D01*
X81328638Y-34480335D01*
X81300007Y-34494943D01*
X81282358Y-34517579D01*
X81133125Y-34491861D01*
X81040073Y-34478338D01*
X80982147Y-34474715D01*
X80931624Y-34482269D01*
X80898846Y-34502311D01*
X80878735Y-34534841D01*
X80871175Y-34584813D01*
X80871175Y-35379000D01*
G37*
G36*
X80126442Y-35379000D02*
G01*
X80343146Y-35379000D01*
X80521670Y-34968452D01*
X80521670Y-35379000D01*
X80725038Y-35379000D01*
X80725038Y-33987011D01*
X80521670Y-33987011D01*
X80521670Y-34824617D01*
X80360927Y-34479795D01*
X80148668Y-34479795D01*
X80148668Y-34483367D01*
X80355609Y-34893836D01*
X80126442Y-35379000D01*
G37*
G36*
X79844726Y-35379000D02*
G01*
X80044523Y-35379000D01*
X80044523Y-35160549D01*
X79844726Y-35160549D01*
X79844726Y-35379000D01*
G37*
G36*
X79312649Y-34479795D02*
G01*
X79381947Y-34477255D01*
X79456484Y-34474715D01*
X79564579Y-34480351D01*
X79628815Y-34493845D01*
X79674274Y-34516892D01*
X79698729Y-34546620D01*
X79706924Y-34584813D01*
X79706924Y-35216431D01*
X79701672Y-35266410D01*
X79686981Y-35306570D01*
X79663425Y-35339072D01*
X79631754Y-35363506D01*
X79592509Y-35378666D01*
X79543483Y-35384080D01*
X79312649Y-35344708D01*
X79312649Y-35379000D01*
X79110154Y-35379000D01*
X79110154Y-35202461D01*
X79312649Y-35202461D01*
X79441402Y-35211351D01*
X79477493Y-35203721D01*
X79497709Y-35183059D01*
X79505302Y-35145467D01*
X79505302Y-34715154D01*
X79497375Y-34676692D01*
X79476111Y-34655375D01*
X79437830Y-34647443D01*
X79312649Y-34647443D01*
X79312649Y-35202461D01*
X79110154Y-35202461D01*
X79110154Y-33987011D01*
X79312649Y-33987011D01*
X79312649Y-34479795D01*
G37*
G36*
X78901349Y-34487461D02*
G01*
X78935183Y-34507685D01*
X78955768Y-34540236D01*
X78963461Y-34589894D01*
X78963461Y-35268901D01*
X78955768Y-35318559D01*
X78935183Y-35351110D01*
X78901349Y-35371334D01*
X78848838Y-35379000D01*
X78498063Y-35379000D01*
X78445595Y-35371336D01*
X78411784Y-35351116D01*
X78391210Y-35318566D01*
X78383519Y-35268901D01*
X78383519Y-35079265D01*
X78577997Y-35079265D01*
X78577997Y-35231672D01*
X78768983Y-35231672D01*
X78768983Y-34977660D01*
X78439481Y-34977660D01*
X78383519Y-34921777D01*
X78383519Y-34844065D01*
X78577997Y-34844065D01*
X78768983Y-34844065D01*
X78768983Y-34627122D01*
X78577997Y-34627122D01*
X78577997Y-34844065D01*
X78383519Y-34844065D01*
X78383519Y-34589894D01*
X78391210Y-34540229D01*
X78411784Y-34507678D01*
X78445595Y-34487459D01*
X78498063Y-34479795D01*
X78848838Y-34479795D01*
X78901349Y-34487461D01*
G37*
G36*
X77628228Y-34479795D02*
G01*
X77857395Y-35379000D01*
X78051874Y-35379000D01*
X78280961Y-34479795D01*
X78072274Y-34479795D01*
X77954158Y-35074184D01*
X77836042Y-34479795D01*
X77628228Y-34479795D01*
G37*
D11*
%TO.C,REF\u002A\u002A*%
X78060000Y-80250000D03*
D12*
X80600000Y-80250000D03*
D11*
X83140000Y-80250000D03*
%TD*%
D13*
%TO.C,J1*%
X84885000Y-37000000D03*
D14*
X84885000Y-32800000D03*
D13*
X76235000Y-37000000D03*
D14*
X76235000Y-32800000D03*
%TD*%
D15*
%TO.C,H2*%
X89450000Y-31990000D03*
X89450000Y-34530000D03*
D16*
X89450000Y-37070000D03*
D15*
X89450000Y-39610000D03*
X89450000Y-42150000D03*
X89450000Y-44690000D03*
X89450000Y-47230000D03*
D16*
X89450000Y-49770000D03*
D15*
X89450000Y-52310000D03*
X89450000Y-54850000D03*
X89450000Y-57390000D03*
X89450000Y-59930000D03*
D16*
X89450000Y-62470000D03*
D15*
X89450000Y-65010000D03*
X89450000Y-67550000D03*
X89450000Y-70090000D03*
X89450000Y-72630000D03*
D16*
X89450000Y-75170000D03*
D15*
X89450000Y-77710000D03*
X89450000Y-80250000D03*
%TD*%
%TO.C,H1*%
X71670000Y-31990000D03*
X71670000Y-34530000D03*
D16*
X71670000Y-37070000D03*
D15*
X71670000Y-39610000D03*
X71670000Y-42150000D03*
X71670000Y-44690000D03*
X71670000Y-47230000D03*
D16*
X71670000Y-49770000D03*
D15*
X71670000Y-52310000D03*
X71670000Y-54850000D03*
X71670000Y-57390000D03*
X71670000Y-59930000D03*
D16*
X71670000Y-62470000D03*
D15*
X71670000Y-65010000D03*
X71670000Y-67550000D03*
X71670000Y-70090000D03*
X71670000Y-72630000D03*
D16*
X71670000Y-75170000D03*
D15*
X71670000Y-77710000D03*
X71670000Y-80250000D03*
%TD*%
M02*
